<?xml version="1.0" encoding="UTF-8" standalone="no"?>
<!-- Created with Inkscape (http://www.inkscape.org/) -->

<svg
   xmlns:dc="http://purl.org/dc/elements/1.1/"
   xmlns:cc="http://creativecommons.org/ns#"
   xmlns:rdf="http://www.w3.org/1999/02/22-rdf-syntax-ns#"
   xmlns:svg="http://www.w3.org/2000/svg"
   xmlns="http://www.w3.org/2000/svg"
   xmlns:sodipodi="http://sodipodi.sourceforge.net/DTD/sodipodi-0.dtd"
   xmlns:inkscape="http://www.inkscape.org/namespaces/inkscape"
   version="1.1"
   id="svg10"
   width="125"
   height="70"
   viewBox="0 0 125 70"
   sodipodi:docname="JL black6.svg"
   inkscape:version="0.92.1 r15371">
  <metadata
     id="metadata16">
    <rdf:RDF>
      <cc:Work
         rdf:about="">
        <dc:format>image/svg+xml</dc:format>
        <dc:type
           rdf:resource="http://purl.org/dc/dcmitype/StillImage" />
        <dc:title></dc:title>
      </cc:Work>
    </rdf:RDF>
  </metadata>
  <defs
     id="defs14" />
  <sodipodi:namedview
     pagecolor="#ffffff"
     bordercolor="#666666"
     borderopacity="1"
     objecttolerance="10"
     gridtolerance="10"
     guidetolerance="10"
     inkscape:pageopacity="0"
     inkscape:pageshadow="2"
     inkscape:window-width="1920"
     inkscape:window-height="1137"
     id="namedview12"
     showgrid="false"
     inkscape:zoom="6.2352995"
     inkscape:cx="29.045759"
     inkscape:cy="47.35991"
     inkscape:window-x="-8"
     inkscape:window-y="-8"
     inkscape:window-maximized="1"
     inkscape:current-layer="svg10" />
  <path
     style="fill:#ffffff;stroke-width:0.20663029"
     d="M 18.747157,65.327964 C 12.983518,64.750864 7.9586384,61.705553 6.0921323,57.658201 4.1238843,53.390024 4.5869586,48.72864 7.2947987,45.55105 9.202516,43.312717 11.644063,42.181327 14.628452,42.152694 c 3.310908,-0.03162 5.638792,0.831541 7.540703,2.795104 2.172999,2.243731 3.019053,5.114592 2.587128,8.778162 -0.292644,2.481492 -0.997529,3.822961 -3.412507,6.494182 -2.223005,2.458383 -2.395623,2.896845 -1.344904,3.416825 0.848928,0.419977 4.260463,0.411737 5.197754,-0.01309 1.582949,-0.716261 2.516188,-2.222434 3.168871,-5.114216 0.358309,-1.587627 0.379539,-2.956607 0.379539,-24.488853 0,-25.0284518 0.02946,-24.3949719 -1.195436,-25.7390283 C 26.766035,7.4220887 25.889699,7.1589807 23.130026,6.954909 L 21.026583,6.7994665 V 6.1688752 5.5381615 H 38.596175 56.16554 v 0.6307137 0.6305863 l -2.393356,0.2437778 c -4.103866,0.4181744 -5.021937,1.2336883 -5.418079,4.8126497 -0.123788,1.118253 -0.208872,8.21078 -0.209865,17.500255 -0.0039,10.414193 -0.07675,16.123941 -0.227601,17.131901 -0.773027,5.170065 -4.012198,9.835146 -9.434074,13.587268 -4.601512,3.18441 -8.901757,4.750891 -14.414898,5.25115 -2.675309,0.24315 -2.900492,0.24317 -5.32051,0.003 z m 39.884372,-1.14115 c -0.277478,-0.748121 0.04986,-0.874404 2.946294,-1.137201 1.569923,-0.142523 3.305397,-0.409366 3.855972,-0.59347 1.210943,-0.404463 2.277226,-1.541648 2.654142,-2.82988 0.210887,-0.721311 0.264789,-5.754822 0.264789,-24.763707 0,-22.505063 -0.02046,-23.920257 -0.368689,-24.9517864 C 67.27093,7.7947715 66.024078,7.1849827 61.906556,6.9376122 L 59.618654,6.8004382 V 6.1698352 5.5391639 L 78.330463,5.4860847 C 95.22134,5.4382683 97.068295,5.464298 97.310117,5.7663731 97.504083,6.008463 97.519246,6.1968823 97.365857,6.4506216 97.193426,6.7347591 96.67265,6.8252835 94.614534,6.929299 88.991723,7.2138999 88.322008,7.7738408 87.940575,12.50713 87.818894,14.01598 87.76196,24.410333 87.796048,38.857462 l 0.0565,23.857751 3.960639,-0.0603 c 2.615064,-0.03893 4.374932,-0.165589 5.179615,-0.370027 6.158378,-1.564591 13.389518,-10.003933 19.803648,-23.112687 0.9051,-1.84954 1.80092,-3.422251 1.99063,-3.494494 0.19011,-0.0727 0.50583,-0.04441 0.70211,0.06127 0.33607,0.180692 0.35404,1.029728 0.30503,14.42521 l -0.0544,14.233073 -30.496251,0.05189 c -26.981005,0.0463 -30.509428,0.01709 -30.613131,-0.262958 z"
     id="path20"
     inkscape:connector-curvature="0" />
</svg>
